<svg xmlns="http://www.w3.org/2000/svg" width="512" height="512" viewBox="0 0 512 512" version="1.1">
	<path d="M 0 256.002 L 0 512.004 256.250 511.752 L 512.500 511.500 512.752 255.750 L 513.004 0 256.502 0 L 0 0 0 256.002 M 0.492 256.500 C 0.492 397.300, 0.608 454.751, 0.750 384.170 C 0.892 313.588, 0.892 198.388, 0.750 128.170 C 0.608 57.951, 0.492 115.700, 0.492 256.500 M 12.929 12.917 L 10 15.846 10 258.390 L 10 500.933 13.485 504.419 C 15.443 506.376, 18.401 508.159, 20.235 508.487 C 22.031 508.807, 128.880 508.941, 257.677 508.785 L 491.853 508.500 494.677 506.404 C 496.230 505.251, 498.056 503.226, 498.735 501.904 C 499.705 500.016, 499.974 447.730, 499.985 258.266 L 500 17.032 497.082 13.766 L 494.164 10.500 255.011 10.244 L 15.858 9.988 12.929 12.917 M 247 29.944 C 235.043 30.552, 231.358 31.124, 225.987 33.207 C 215.573 37.245, 207.347 41.717, 195.603 49.726 L 184.631 57.209 178.378 56.811 C 172.871 56.461, 172.065 56.642, 171.624 58.330 C 171.228 59.846, 170.568 60.109, 168.477 59.584 C 166.755 59.151, 166.057 59.283, 166.475 59.960 C 166.829 60.532, 167.781 61, 168.592 61 C 169.403 61, 172.363 62.164, 175.169 63.586 C 178.930 65.491, 181.223 66.032, 183.886 65.643 L 187.500 65.114 184.280 66.193 C 181.608 67.088, 180.215 66.909, 176.095 65.136 C 173.364 63.961, 170.061 63, 168.756 63 C 165.696 63, 162.592 65.275, 163.192 67.077 C 163.449 67.848, 162.610 69.306, 161.326 70.316 C 160.042 71.325, 157.598 74.178, 155.894 76.654 L 152.796 81.157 156.148 79.530 C 159.275 78.013, 159.366 78.015, 157.500 79.560 C 154.608 81.956, 143.845 86.990, 141.500 87.044 C 140.400 87.070, 138.150 87.708, 136.500 88.464 L 133.500 89.838 137.500 89.923 L 141.500 90.007 138.401 91.897 C 134.954 93.999, 132 100.173, 132 105.277 C 132 107.057, 131.580 109.979, 131.066 111.770 C 129.949 115.666, 109.797 140.004, 94.621 155.787 L 83.742 167.100 84.352 171.552 C 85.224 177.916, 90.881 192.423, 96.061 201.581 C 99.083 206.924, 103.433 212.362, 109.686 218.615 C 120.313 229.241, 120.981 230.982, 119.186 243.345 C 118.229 249.941, 118.285 251.651, 119.541 254.079 C 121.763 258.376, 126.392 260.380, 134.245 260.444 C 138.037 260.476, 140.990 260.938, 140.991 261.500 C 140.992 262.050, 139.188 268.350, 136.984 275.500 C 129.285 300.467, 127.869 311.543, 130.125 329.140 L 131.251 337.915 127.757 343.208 C 120.189 354.670, 115.358 367.295, 114.338 378.277 C 113.724 384.884, 113.511 385.324, 108.382 390.577 C 102.568 396.532, 97.063 406.926, 94.919 416 C 94.204 419.025, 93.625 426.225, 93.633 432 C 93.649 443.916, 95.557 452.123, 102.063 468.271 C 106.935 480.361, 106.996 481.633, 102.750 482.519 C 96.019 483.922, 91.011 489.564, 91.004 495.750 L 91 499 108.886 499 L 126.773 499 127.485 494.250 C 128.402 488.132, 129.589 486, 132.074 486 C 134.051 486, 134.052 486.027, 132.160 488.058 C 130.246 490.113, 128.609 496.559, 129.597 498.156 C 129.883 498.620, 147.015 499, 167.667 499 L 205.217 499 204.531 496.250 C 203.416 491.782, 199.035 486.903, 194.232 484.778 C 190.723 483.226, 188.142 482.875, 182.373 483.167 C 178.318 483.371, 175 483.427, 175 483.290 C 175 483.153, 176.804 480.669, 179.008 477.770 C 188.807 464.885, 189.963 452.423, 183.580 428.500 C 178.927 411.063, 177.655 396.144, 180.547 392.948 C 182.331 390.977, 182.308 390.945, 179.282 391.175 C 177.586 391.305, 175.485 390.817, 174.611 390.092 C 173.278 388.986, 172.924 389.036, 172.398 390.404 C 172.055 391.300, 171.987 393.151, 172.248 394.517 C 172.949 398.186, 171.876 397.562, 168.347 392.248 C 163.618 385.128, 163.080 383.740, 162.171 376.322 C 161.382 369.875, 161.272 369.655, 160.168 372.315 C 159.526 373.863, 159 376.316, 159 377.765 C 159 381.032, 158.189 380.259, 153.610 372.631 C 151.672 369.403, 149.792 364.795, 149.431 362.391 C 149.060 359.913, 148.350 358.284, 147.792 358.629 C 147.251 358.963, 147.006 360.587, 147.248 362.238 L 147.689 365.239 145.856 362.869 C 140.186 355.540, 133 328.281, 133 314.104 C 133 308.258, 135.726 292.012, 137.529 287.113 L 138.859 283.500 138.930 286.645 C 139.026 290.970, 142.652 302.369, 146.039 309 C 147.585 312.025, 150.951 316.510, 153.519 318.968 L 158.189 323.435 156.028 319.772 C 154.824 317.732, 153.616 313.537, 153.300 310.304 C 152.638 303.509, 151.078 299.692, 151.030 304.750 C 150.985 309.555, 149.408 308.705, 147.145 302.658 C 143.733 293.537, 141.772 282.117, 142.483 275.500 C 143.785 263.379, 144.817 260.937, 151.380 254.453 C 158.170 247.745, 162.458 239.973, 165.974 228 C 167.185 223.875, 170.350 216.343, 173.006 211.262 C 175.662 206.182, 178.133 200.670, 178.497 199.014 L 179.158 196.003 174.363 198.059 C 171.725 199.190, 168.903 200.651, 168.091 201.307 C 166.911 202.262, 166.780 202.228, 167.436 201.138 C 167.887 200.389, 170.673 198.708, 173.628 197.401 C 176.583 196.094, 179.058 194.457, 179.129 193.763 C 179.725 187.931, 178.356 181.456, 174.741 173 C 172.507 167.775, 170.083 161.025, 169.355 158 C 167.579 150.621, 167.648 136.480, 169.489 130.409 C 170.308 127.709, 170.990 121.675, 171.004 117 C 171.035 106.674, 172.633 99.564, 177.814 86.703 C 182.735 74.487, 183.675 73.377, 180.425 83.621 C 175.545 99.001, 173.919 106.646, 173.010 118.500 C 172.503 125.100, 171.593 133.200, 170.987 136.500 C 170.184 140.877, 170.186 144.763, 170.996 150.868 C 172.039 158.729, 173.309 162.787, 179.331 177.500 C 180.681 180.800, 182.084 186.021, 182.447 189.101 C 183.035 194.096, 183.345 194.679, 185.303 194.489 C 186.544 194.368, 186.738 194.463, 185.748 194.707 C 182.775 195.441, 181.844 198.785, 181.864 208.660 C 181.875 213.886, 181.410 219.201, 180.831 220.472 C 180.089 222.100, 180.097 223.330, 180.859 224.641 C 181.860 226.363, 181.941 226.331, 181.970 224.200 C 182.009 221.223, 184.205 217.021, 187.039 214.498 L 189.283 212.500 187.963 214.651 C 186.809 216.530, 187.152 218.358, 190.681 229.151 C 192.902 235.943, 195.447 243.975, 196.336 247 C 199.165 256.628, 207.697 264, 216.011 264 L 218.855 264 218.289 269.492 C 217.727 274.929, 217.766 275.029, 222.114 279.377 C 226.985 284.248, 231.599 285.986, 239.685 285.994 C 247.696 286.003, 249.228 284.998, 253.449 276.964 L 257.241 269.749 258.970 274.660 C 261.706 282.428, 262.778 283.844, 266.762 284.951 C 276.229 287.580, 289.138 285.062, 294.697 279.503 C 297.633 276.567, 298 275.589, 298 270.707 C 298 265.106, 298.788 264, 302.778 264 C 304.585 264, 311.065 259.904, 315.247 256.118 C 318.578 253.103, 322 244.389, 322 238.923 C 322 234.423, 319.065 227.871, 315.203 223.750 C 313.786 222.238, 313.048 221, 313.563 221 C 314.976 221, 319.431 226.943, 322.380 232.762 C 323.952 235.866, 325.072 239.846, 325.181 242.717 C 325.280 245.348, 325.669 243, 326.044 237.500 C 326.419 232, 327.071 225.597, 327.492 223.271 C 328.460 217.924, 326.878 215.318, 319.753 210.520 C 313.297 206.172, 314.500 205.829, 321.178 210.114 C 330.895 216.350, 336.858 225.744, 335.523 232.713 L 334.989 235.500 336.449 232.500 C 337.253 230.850, 337.930 227.340, 337.955 224.700 C 337.980 222.061, 338.730 218.489, 339.622 216.764 C 341.581 212.976, 341.060 203.950, 338.608 199.209 C 336.775 195.664, 332.549 194.075, 324.500 193.906 C 321.750 193.848, 318.375 193.440, 317 193 C 314.551 192.216, 314.561 192.198, 317.500 192.119 C 320.897 192.029, 332.952 193.660, 335.166 194.510 C 336.367 194.971, 336.614 193.765, 336.563 187.706 C 336.506 181.100, 336.831 179.809, 339.712 175.165 C 341.479 172.318, 343.669 167.853, 344.578 165.244 C 347.065 158.104, 347.596 139.581, 345.674 126.934 C 344.802 121.195, 343.840 113.575, 343.536 110 C 343.203 106.084, 341.018 97.750, 338.040 89.035 C 335.321 81.080, 333.217 74.450, 333.364 74.302 C 333.941 73.725, 343.046 96.390, 344.515 102.058 C 345.371 105.362, 346.475 111.987, 346.969 116.782 C 347.462 121.577, 348.403 128.650, 349.060 132.500 C 350.562 141.304, 349.693 157.773, 347.372 164.500 C 346.423 167.250, 344.309 171.750, 342.674 174.500 C 339.508 179.824, 338.304 186.476, 339.425 192.450 C 339.956 195.285, 340.796 196.306, 343.535 197.450 C 345.429 198.241, 348.895 200.208, 351.239 201.820 L 355.500 204.751 355.598 198.126 C 355.669 193.360, 356.696 188.552, 359.258 181 C 364.394 165.856, 365.917 159.347, 367.033 147.773 C 369.300 124.247, 360.987 89.439, 350.433 78.266 C 348.020 75.712, 346.222 73.444, 346.439 73.227 C 346.656 73.011, 347.686 73.686, 348.727 74.727 C 349.769 75.769, 351.545 77.269, 352.673 78.061 C 357.316 81.317, 368.426 109.109, 371.443 125.015 C 373.403 135.345, 373.444 151.758, 371.533 160.842 C 370.727 164.677, 367.757 174.044, 364.934 181.657 C 362.110 189.271, 359.323 198.049, 358.740 201.163 C 357.791 206.230, 357.919 207.384, 359.952 212.111 C 361.203 215.017, 362.396 220.119, 362.604 223.447 L 362.982 229.500 361.623 222.470 C 359.946 213.792, 357.203 208.264, 352.545 204.174 C 348.700 200.798, 343.098 197.569, 342.362 198.305 C 342.113 198.554, 343.530 202.672, 345.510 207.457 C 347.491 212.241, 350.400 221.066, 351.974 227.067 C 355.186 239.308, 358.716 246.982, 364.172 253.585 C 368.818 259.208, 370.500 266.096, 370.500 279.500 C 370.500 287.808, 370.015 290.980, 367.632 298.250 C 364.805 306.876, 363 309.334, 363 304.559 C 363 300.538, 361.149 300.658, 360.473 304.722 C 360.127 306.800, 359.206 310.489, 358.425 312.920 C 357.644 315.350, 357.231 317.565, 357.507 317.840 C 358.328 318.662, 363.075 313.821, 366.176 309 C 369.544 303.762, 373.951 290.543, 374.110 285.198 C 374.204 282.029, 374.509 282.572, 376.243 289 C 377.840 294.919, 378.283 299.767, 378.347 312 L 378.427 327.500 373.196 342.831 C 370.319 351.263, 367.093 359.813, 366.027 361.831 L 364.088 365.500 364.044 362.250 C 363.984 357.823, 362.381 358.142, 361.529 362.750 C 360.800 366.691, 355.958 375.960, 353.610 377.909 C 352.497 378.833, 352.105 378.376, 351.571 375.526 C 350.696 370.861, 349 371.009, 348.999 375.750 C 348.998 379.963, 344.534 389.918, 340.591 394.500 L 338.009 397.500 338.633 393.250 C 339.325 388.530, 339.026 388.282, 335.463 390.616 C 334.106 391.505, 332.097 391.997, 330.998 391.710 C 328.931 391.169, 328.238 392.411, 330 393.500 C 331.411 394.372, 331.176 407.266, 329.610 415 C 328.885 418.575, 326.698 426.900, 324.748 433.500 C 318.558 454.450, 318.809 462.187, 326.121 475.885 C 328.289 479.947, 329.924 483.409, 329.754 483.579 C 329.585 483.749, 327.448 483.439, 325.006 482.890 C 319.581 481.671, 308.722 483.275, 304.335 485.943 C 302.692 486.942, 299.904 489.939, 298.139 492.604 C 295.227 497, 295.095 497.515, 296.715 498.154 C 297.697 498.542, 315.664 498.891, 336.643 498.930 C 370.520 498.992, 374.854 498.823, 375.392 497.421 C 376.284 495.096, 375.026 490.817, 372.694 488.250 C 371.040 486.428, 370.946 486, 372.203 486 C 374.664 486, 376.390 488.849, 376.967 493.863 L 377.500 498.500 395.773 498.773 C 416.674 499.085, 416.643 499.098, 413.376 491.152 C 411.847 487.435, 410.513 485.998, 406.734 484 C 404.134 482.625, 402.004 481.177, 402.003 480.783 C 402.001 480.389, 404.235 475.387, 406.966 469.667 C 414.388 454.126, 416.416 445.958, 416.442 431.500 C 416.476 413.037, 412.321 401.530, 401.458 390 C 396.459 384.693, 396.256 384.254, 395.692 377.500 C 394.931 368.389, 391.195 357.705, 384.894 346.623 L 379.826 337.710 381.413 329.835 C 383.210 320.916, 383.493 304.918, 381.996 296.886 C 381.074 291.940, 378.956 283.577, 374.094 265.690 C 372.748 260.735, 372.584 259.010, 373.494 259.359 C 380.998 262.239, 390.306 260.422, 395.426 255.077 L 398.192 252.190 396.939 243.338 C 395.073 230.156, 395.752 228.051, 404.930 218.541 C 414.508 208.618, 417.505 204.217, 424.658 189.568 C 428.472 181.757, 430.449 176.383, 430.782 172.919 L 431.273 167.804 419.748 156.152 C 413.408 149.743, 402.547 137.397, 395.611 128.717 L 383 112.933 383 106.901 C 383 100.158, 382.146 97.964, 377.684 93.250 L 374.608 90 377.504 90 C 381.866 90, 379.320 88.199, 373.361 87.069 C 364.474 85.383, 361.348 83.242, 355.956 75.146 C 353.230 71.052, 351 67.084, 351 66.327 C 351 64.367, 346.202 62.800, 342.576 63.576 C 339.021 64.336, 339.127 64.167, 344.500 60.506 L 348.500 57.781 345.250 58.470 C 342.397 59.075, 342 58.903, 342 57.060 C 342 55.251, 341.621 55.068, 339.250 55.731 C 331.896 57.788, 328.420 56.646, 315.909 48.061 C 290.977 30.954, 280.632 28.234, 247 29.944 M 240 33.665 C 239.175 33.903, 236.925 36.663, 235 39.799 C 230.176 47.656, 230.282 53.443, 235.464 65.074 C 243.506 83.127, 244.308 85.493, 244.766 92.500 C 245.285 100.452, 242.885 115.164, 239.999 121.717 C 238.978 124.036, 236.758 127.944, 235.067 130.402 C 230.925 136.423, 220.915 156.252, 216.933 166.324 C 215.155 170.821, 211.740 179.070, 209.344 184.655 C 206.948 190.240, 204.711 196.990, 204.373 199.655 C 204.035 202.320, 203.052 205.063, 202.188 205.750 C 200.785 206.867, 200.782 207, 202.164 207 C 203.356 207, 203.845 208.608, 204.299 214.027 C 205.274 225.658, 212.750 235.809, 224.148 240.981 C 237.184 246.897, 257 238.527, 257 227.106 C 257 224.265, 256.464 223.777, 250.250 220.961 C 239.125 215.920, 235.209 211.083, 230.981 197.163 C 225.767 179.997, 232.451 170, 249.142 170 C 255.315 170, 255.896 169.817, 256.294 167.750 C 256.713 165.577, 256.732 165.573, 256.864 167.639 C 256.993 169.662, 257.597 169.799, 267.945 170.153 C 279.762 170.558, 281.992 171.430, 286.438 177.385 C 289.339 181.271, 289.054 190.113, 285.673 201.101 C 283.375 208.570, 282.393 210.294, 278.213 214.204 C 275.277 216.950, 271.401 219.370, 268.277 220.408 C 265.459 221.344, 262.629 222.742, 261.989 223.514 C 259.087 227.010, 264.779 235.249, 273.053 239.527 C 281.552 243.923, 294.394 241.927, 302.281 234.984 C 314.186 224.504, 317.309 202.315, 309.473 183.880 C 307.981 180.371, 304.536 172.100, 301.817 165.500 C 295.837 150.983, 291.196 141.725, 285.400 132.751 C 278.811 122.547, 277.032 118.580, 274.406 108.226 C 270.345 92.217, 270.958 84.848, 277.903 66.185 C 279.605 61.611, 281.282 55.449, 281.630 52.490 C 282.183 47.786, 281.873 46.304, 279.164 40.687 C 276.533 35.232, 275.590 34.168, 272.908 33.632 C 266.618 32.374, 265.207 32.780, 264.487 36.059 C 264.117 37.742, 262.246 42.515, 260.328 46.665 L 256.842 54.211 252.921 46.592 C 250.764 42.401, 249 37.628, 249 35.986 C 249 33.182, 248.772 33.007, 245.250 33.116 C 243.188 33.180, 240.825 33.427, 240 33.665 M 328.813 65.683 C 329.534 65.972, 330.397 65.936, 330.729 65.604 C 331.061 65.272, 330.471 65.036, 329.417 65.079 C 328.252 65.127, 328.015 65.364, 328.813 65.683 M 163.267 76.780 C 156.099 83.079, 147.921 104.069, 143.507 127.500 C 140.260 144.738, 142.383 161.873, 150.472 183.722 C 152.960 190.443, 155.520 198.997, 156.160 202.730 C 157.209 208.847, 157.122 210.059, 155.272 215.009 C 152.150 223.365, 149.988 231.126, 150.947 230.533 C 151.418 230.241, 152.795 226.740, 154.006 222.751 C 156.832 213.447, 158.391 210.410, 162.860 205.506 C 165.821 202.258, 165.922 202.033, 163.399 204.301 L 160.298 207.089 159.698 200.295 C 159.358 196.443, 157.342 188.317, 155.045 181.535 C 152.816 174.955, 150.319 166.311, 149.496 162.327 C 147.741 153.833, 147.524 133.637, 149.066 122.322 C 151.569 103.946, 158.175 84.355, 164.159 77.557 C 166.365 75.050, 168.019 73.013, 167.835 73.030 C 167.651 73.046, 165.595 74.734, 163.267 76.780 M 217.750 85.746 C 221.014 88.816, 221.839 92.125, 220.047 94.958 C 219.259 96.205, 218.481 96.095, 214.703 94.208 C 209.859 91.789, 205.652 91.428, 201.315 93.058 C 198.206 94.227, 190.421 101.364, 188.834 104.500 C 188.134 105.884, 188.543 105.692, 190.161 103.879 C 196.027 97.304, 205.660 92.945, 211.232 94.343 C 215.473 95.408, 219.999 99.942, 222.528 105.658 C 225.119 111.519, 226.788 113.130, 224.436 107.502 C 223.633 105.578, 222.695 100.516, 222.354 96.252 C 221.722 88.367, 220.567 85.895, 216.511 83.752 C 215.405 83.168, 215.963 84.065, 217.750 85.746 M 298.788 86.750 C 297.951 87.713, 296.978 91.082, 296.625 94.238 C 296.273 97.394, 294.888 102.457, 293.548 105.488 C 290.376 112.661, 291.247 112.646, 294.644 105.470 C 296.085 102.428, 298.666 98.791, 300.381 97.388 C 302.419 95.722, 302.720 95.225, 301.250 95.954 C 299.101 97.020, 299 96.886, 299 92.969 C 299 90.714, 299.466 87.998, 300.035 86.934 C 301.323 84.528, 300.789 84.449, 298.788 86.750 M 307.250 92.584 C 305.462 93.366, 303.999 94.117, 303.999 94.253 C 303.998 94.389, 306.413 94.349, 309.365 94.165 C 315.225 93.800, 321.516 96.305, 328.107 101.630 C 331.260 104.176, 331.218 104.072, 327.525 100.162 C 323.551 95.956, 314.984 90.928, 312.054 91.082 C 311.199 91.126, 309.038 91.803, 307.250 92.584 M 305.998 103.502 C 304.892 104.835, 304.907 105.325, 306.086 106.451 C 308.019 108.297, 312.274 106.666, 311.814 104.255 C 311.375 101.950, 307.683 101.472, 305.998 103.502 M 209.200 104.200 C 207.642 105.758, 207.667 107.719, 209.250 108.264 C 211.530 109.049, 216.165 106.872, 215.561 105.299 C 215.253 104.495, 215 103.648, 215 103.418 C 215 102.461, 210.306 103.094, 209.200 104.200 M 299.525 109.713 C 301.877 115.343, 303.819 117, 308.066 117 C 311.033 117, 312.366 116.353, 314.411 113.923 C 317.032 110.809, 317.761 107.588, 316.081 106.550 C 315.576 106.238, 314.851 107.449, 314.470 109.241 C 313.580 113.431, 311.285 116, 308.434 116 C 306.074 116, 301.612 111.502, 300.502 108.005 C 300.152 106.902, 299.440 106, 298.919 106 C 298.399 106, 298.671 107.671, 299.525 109.713 M 202.062 110.104 C 201.984 113.395, 206.164 118, 209.230 118 C 211.520 118, 215.799 115.626, 217.235 113.558 C 217.639 112.976, 217.975 111.600, 217.981 110.500 C 217.990 108.869, 217.654 109.054, 216.158 111.500 C 211.864 118.524, 207.710 118.623, 204.276 111.785 C 202.359 107.967, 202.117 107.784, 202.062 110.104 M 193.022 116.628 C 193.064 118.285, 196.510 121.619, 199.500 122.896 L 202.500 124.176 200.387 121.838 C 199.224 120.552, 197.775 118.600, 197.167 117.500 C 196.516 116.323, 196.048 116.065, 196.030 116.872 C 196.006 117.979, 195.709 118.004, 194.500 117 C 193.675 116.315, 193.010 116.148, 193.022 116.628 M 321.751 119.111 C 319.453 123.115, 310.117 127.443, 305.421 126.681 L 302.028 126.130 303.561 129.815 C 304.404 131.842, 305.800 134.175, 306.664 135 C 308.078 136.352, 308.123 136.284, 307.117 134.316 C 305.606 131.361, 305.711 130.675, 307.565 131.387 C 308.780 131.853, 308.984 131.524, 308.474 129.919 C 307.857 127.974, 308.089 127.891, 312.342 128.529 C 316.573 129.163, 316.832 129.073, 316.326 127.139 C 315.901 125.513, 316.539 124.711, 319.303 123.392 C 321.657 122.270, 322.987 120.852, 323.322 119.107 C 323.995 115.605, 323.763 115.605, 321.751 119.111 M 220.211 119.605 C 219.151 120.751, 219.186 121, 220.402 121 C 222.100 121, 223.410 119.367, 222.266 118.674 C 221.845 118.419, 220.920 118.838, 220.211 119.605 M 200.750 126.080 C 197.279 128.102, 198.825 129.281, 204.041 128.589 L 209.081 127.920 206.995 132.210 C 204.925 136.467, 204.924 136.482, 206.954 134.139 C 209.113 131.648, 209.715 132.796, 207.965 136.066 C 205.927 139.874, 208.101 137.910, 211.022 133.304 C 214.570 127.710, 215.045 124.370, 212.065 125.965 C 210.760 126.664, 209.276 126.675, 207.500 126 C 204.249 124.764, 202.984 124.779, 200.750 126.080 M 130.979 139.146 C 126.873 147.773, 126.535 149.083, 126.634 156 C 126.717 161.852, 127.564 165.917, 130.490 174.500 C 133.945 184.638, 136.916 191.649, 135.574 186.500 C 129.814 164.394, 129.491 157.918, 133.394 142.741 C 134.916 136.824, 135.997 131.490, 135.796 130.887 C 135.595 130.285, 133.427 134.001, 130.979 139.146 M 382.702 140.750 C 384.495 152.142, 384.434 172.773, 382.585 180.492 C 381.796 183.787, 381.277 186.610, 381.432 186.765 C 381.587 186.920, 382.701 184.674, 383.907 181.774 C 387.469 173.210, 390 162.091, 390 155.009 C 390 149.347, 389.429 147.213, 386.036 140.197 C 383.856 135.689, 381.904 132, 381.699 132 C 381.493 132, 381.945 135.938, 382.702 140.750 M 107.586 147.076 C 93.616 162.163, 91.470 164.803, 92.408 165.741 C 93.540 166.873, 115.450 143.629, 118.322 138.250 C 119.863 135.363, 120.984 133.029, 120.812 133.065 C 120.641 133.100, 114.689 139.405, 107.586 147.076 M 398.843 140.562 C 402.381 147.726, 419.957 166.376, 421.611 164.722 C 421.882 164.451, 419.042 160.910, 415.302 156.851 C 411.561 152.793, 405.876 146.554, 402.668 142.986 C 397.168 136.869, 396.951 136.731, 398.843 140.562 M 139.079 144.583 C 139.127 145.748, 139.364 145.985, 139.683 145.188 C 139.972 144.466, 139.936 143.603, 139.604 143.271 C 139.272 142.939, 139.036 143.529, 139.079 144.583 M 376.079 145.583 C 376.127 146.748, 376.364 146.985, 376.683 146.188 C 376.972 145.466, 376.936 144.603, 376.604 144.271 C 376.272 143.939, 376.036 144.529, 376.079 145.583 M 138.272 151 C 138.272 153.475, 138.467 154.488, 138.706 153.250 C 138.944 152.012, 138.944 149.988, 138.706 148.750 C 138.467 147.512, 138.272 148.525, 138.272 151 M 138.158 159 C 138.158 160.375, 138.385 160.938, 138.662 160.250 C 138.940 159.563, 138.940 158.438, 138.662 157.750 C 138.385 157.063, 138.158 157.625, 138.158 159 M 124.079 174.583 C 124.127 175.748, 124.364 175.985, 124.683 175.188 C 124.972 174.466, 124.936 173.603, 124.604 173.271 C 124.272 172.939, 124.036 173.529, 124.079 174.583 M 126.121 181 C 126.104 181.825, 126.708 183.850, 127.464 185.500 C 129.232 189.362, 129.258 187.566, 127.500 183 C 126.759 181.075, 126.138 180.175, 126.121 181 M 245.200 183.200 C 243.167 185.233, 243.786 185.546, 250.250 185.758 C 260.918 186.107, 268.964 185.070, 268.334 183.427 C 267.615 181.554, 247.048 181.352, 245.200 183.200 M 192.776 193.733 C 195.128 193.945, 198.728 193.942, 200.776 193.727 C 202.824 193.512, 200.900 193.339, 196.500 193.343 C 192.100 193.346, 190.424 193.522, 192.776 193.733 M 246.500 198.638 C 243.977 200.724, 242.716 201.049, 238.566 200.688 C 234.197 200.307, 233.847 200.415, 235.508 201.629 C 239.965 204.889, 250.801 201.983, 249.862 197.780 C 249.556 196.411, 249.034 196.544, 246.500 198.638 M 268.461 197.063 C 267.526 198.576, 270.655 201.701, 273.684 202.280 C 276.679 202.853, 282.636 201.399, 283.585 199.863 C 284.030 199.142, 283.581 199.154, 282.186 199.900 C 278.786 201.720, 275.070 201.178, 272.588 198.500 C 270.011 195.720, 269.419 195.514, 268.461 197.063 M 298.500 205 C 298.160 205.550, 298.359 206, 298.941 206 C 299.523 206, 300 205.550, 300 205 C 300 204.450, 299.802 204, 299.559 204 C 299.316 204, 298.840 204.450, 298.500 205 M 201 227 C 199.825 228.650, 199.089 230, 199.364 230 C 199.639 230, 200.825 228.650, 202 227 C 203.175 225.350, 203.911 224, 203.636 224 C 203.361 224, 202.175 225.350, 201 227 M 208.098 239.149 C 207.494 240.881, 207.061 245.044, 207.136 248.399 L 207.272 254.500 208.020 247.402 C 208.432 243.498, 209.076 239.335, 209.452 238.152 C 210.530 234.755, 209.319 235.647, 208.098 239.149 M 308.485 237.332 C 308.768 238.339, 309.007 242.839, 309.015 247.332 C 309.026 252.975, 309.330 255.036, 310 254 C 311.462 251.737, 311.107 241.902, 309.440 238.500 C 308.631 236.850, 308.202 236.324, 308.485 237.332 M 221.956 251.615 C 219.672 257.624, 223.530 269.109, 229.261 273.359 C 233.387 276.419, 243.423 276.784, 247.808 274.034 C 253.543 270.436, 256.600 260.338, 254.013 253.533 C 253.054 251.013, 252.937 250.981, 250.062 252.468 C 248.433 253.311, 245.524 254, 243.599 254 C 238.706 254, 229.882 252.008, 227.527 250.371 C 224.611 248.344, 223.069 248.689, 221.956 251.615 M 285.500 251.317 C 282.060 253.195, 279.926 253.500, 270.250 253.500 L 258.999 253.500 259.022 258.500 C 259.049 264.570, 261.899 271.232, 265.469 273.572 C 267.404 274.839, 269.992 275.265, 275.186 275.169 C 286.589 274.958, 292.550 270.773, 293.704 262.168 C 294.333 257.481, 292.328 248.965, 290.620 249.067 C 290.004 249.104, 287.700 250.116, 285.500 251.317 M 347.047 321.250 C 346.349 323.587, 344.872 327.278, 343.765 329.452 C 341.236 334.419, 337.847 344.181, 338.444 344.778 C 338.691 345.025, 340.987 341.991, 343.545 338.036 C 346.104 334.081, 349.593 329.192, 351.298 327.173 L 354.399 323.500 350.549 327 C 347.712 329.580, 346.889 329.974, 347.421 328.500 C 348.357 325.905, 349.423 317, 348.798 317 C 348.533 317, 347.745 318.913, 347.047 321.250 M 165.532 326 C 165.881 328.475, 166.350 331.175, 166.574 332 C 166.798 332.825, 164.904 331.250, 162.365 328.500 L 157.749 323.500 161.741 329.500 C 163.936 332.800, 167.087 337.684, 168.743 340.354 C 170.398 343.024, 171.972 344.824, 172.239 344.354 C 172.507 343.884, 171.429 339.014, 169.844 333.531 C 166.634 322.428, 164.504 318.707, 165.532 326 M 335.245 333.738 C 333.644 337.903, 330.528 342.399, 324.495 349.246 C 319.823 354.549, 316 359.166, 316 359.506 C 316 359.846, 318.092 358.634, 320.650 356.812 C 330.217 349.997, 338.632 337.150, 337.830 330.582 C 337.547 328.259, 337.179 328.708, 335.245 333.738 M 173.541 335.250 C 174.528 339.833, 176.707 343.788, 181.148 349.058 C 185.026 353.659, 190.820 358.513, 191.556 357.777 C 191.776 357.558, 189 353.824, 185.388 349.480 C 181.776 345.135, 177.729 339.425, 176.394 336.790 C 173.567 331.212, 172.554 330.665, 173.541 335.250 M 192.608 351.919 C 194.789 355.861, 205.775 368, 207.160 368 C 207.672 368, 204.628 364.063, 200.396 359.250 C 190.490 347.987, 190.369 347.873, 192.608 351.919 M 307.729 359.511 C 300.705 368.318, 299.937 371.294, 306.665 363.634 C 309.988 359.851, 315.715 350.979, 314.814 351.011 C 314.641 351.017, 311.453 354.842, 307.729 359.511 M 121.781 359.250 C 117.720 370.270, 116.687 375.516, 117.240 382.305 C 117.846 389.737, 120.804 397.565, 121.903 394.644 C 122.478 393.113, 122.928 393.514, 124.468 396.929 C 128.301 405.430, 137.990 411.085, 138.813 405.303 C 139.093 403.332, 138.783 403.161, 135.801 403.645 C 131.303 404.375, 129.336 402.022, 126.752 392.813 C 125.081 386.860, 124.681 382.385, 124.600 368.750 C 124.545 359.538, 124.489 352, 124.476 352 C 124.463 352, 123.250 355.262, 121.781 359.250 M 385.454 369.304 C 385.411 384.359, 385.213 386.062, 382.633 393.483 C 379.262 403.179, 378.502 404.168, 374.576 403.960 C 370.015 403.719, 369.834 403.822, 371.006 406.012 C 372.062 407.984, 374.105 408.134, 378.112 406.535 C 378.999 406.181, 381.421 402.991, 383.494 399.446 C 385.567 395.901, 387.387 393, 387.538 393 C 387.689 393, 387.579 394.012, 387.292 395.250 L 386.772 397.500 388.515 395.147 C 391.080 391.683, 393 384.434, 393 378.210 C 393 373.318, 388.114 355.914, 386.148 353.804 C 385.792 353.422, 385.479 360.397, 385.454 369.304 M 205.740 358.689 C 210.064 363.854, 218.290 371.241, 223.399 374.549 C 226.285 376.417, 226.293 376.416, 225.193 374.362 C 223.736 371.638, 213.778 362.465, 206.968 357.572 L 201.540 353.673 205.740 358.689 M 298.327 360.617 C 287.906 368.427, 277.029 380.561, 286.154 374.197 C 290.482 371.179, 305.031 357, 303.800 357 C 303.444 357, 300.981 358.628, 298.327 360.617 M 310.252 377.500 C 316.585 389.951, 318.166 408.811, 314.105 423.443 C 311.637 432.335, 305.514 444.802, 301.042 450.041 L 298.090 453.500 299.915 448.500 C 300.918 445.750, 302.019 441.700, 302.361 439.500 C 302.821 436.540, 302.260 437.464, 300.206 443.052 C 298.680 447.206, 296.389 452.381, 295.116 454.552 C 292.313 459.332, 285.748 468.081, 285.301 467.634 C 285.124 467.457, 285.619 465.496, 286.402 463.277 C 287.185 461.058, 288.138 456.600, 288.520 453.371 L 289.213 447.500 285.579 454.668 C 281.153 463.395, 268.635 475.784, 259.114 480.858 C 255.674 482.692, 252.722 484.037, 252.554 483.846 C 252.386 483.656, 252.850 480.125, 253.585 476 C 254.319 471.875, 254.884 466.025, 254.838 463 L 254.756 457.500 253.938 463.500 C 252.314 475.407, 250.804 483, 250.060 483 C 249.643 483, 245.045 478.613, 239.841 473.250 C 231.260 464.407, 222 451.254, 222 447.909 C 222 447.226, 221.795 446.871, 221.545 447.121 C 221.095 447.572, 222.489 458.860, 223.617 463.887 C 224.080 465.955, 223.427 465.458, 220.480 461.500 C 216.119 455.642, 211.931 446.871, 209.565 438.643 C 208.639 435.421, 207.703 432.964, 207.485 433.182 C 206.858 433.809, 209.652 446.216, 211.399 450.564 L 212.980 454.500 209.464 450.500 C 204.513 444.870, 198.352 431.990, 195.884 422.113 C 192.960 410.411, 193.536 395.607, 197.325 385.081 C 198.794 381.001, 199.850 377.517, 199.672 377.339 C 198.928 376.595, 191.028 391.927, 189.576 396.932 C 186.367 407.991, 188.027 423.124, 193.985 437.124 C 197.032 444.285, 198.572 451.128, 201.493 470.500 C 202.792 479.120, 203.649 482.041, 205.453 484 C 208.793 487.627, 210 490.399, 210 494.445 L 210 498.022 250.723 497.761 L 291.445 497.500 292.193 493.120 C 293.228 487.050, 295.266 484.372, 299.634 483.339 C 303.966 482.315, 303.979 482.282, 307.084 465 C 308.220 458.675, 310.215 450.575, 311.516 447 C 320.927 421.155, 321.143 420.413, 321.706 411.908 C 322.061 406.549, 321.806 401.283, 321.029 397.908 C 319.438 391.009, 313.789 379.015, 310.929 376.464 L 308.726 374.500 310.252 377.500 M 300.564 382.293 C 300.940 383.279, 301.499 383.834, 301.807 383.526 C 302.115 383.219, 301.808 382.412, 301.124 381.733 C 300.136 380.753, 300.022 380.868, 300.564 382.293 M 302.086 385.500 C 302.190 387.394, 303.856 390.584, 303.914 389 C 303.945 388.175, 303.533 386.825, 303 386 C 302.467 385.175, 302.055 384.950, 302.086 385.500 M 207.079 390.583 C 207.127 391.748, 207.364 391.985, 207.683 391.188 C 207.972 390.466, 207.936 389.603, 207.604 389.271 C 207.272 388.939, 207.036 389.529, 207.079 390.583 M 304.158 393 C 304.158 394.375, 304.385 394.938, 304.662 394.250 C 304.940 393.563, 304.940 392.438, 304.662 391.750 C 304.385 391.063, 304.158 391.625, 304.158 393 M 305.079 398.583 C 305.127 399.748, 305.364 399.985, 305.683 399.188 C 305.972 398.466, 305.936 397.603, 305.604 397.271 C 305.272 396.939, 305.036 397.529, 305.079 398.583 M 146.533 413 C 147.080 418.553, 148.874 425.459, 149.584 424.749 C 149.988 424.346, 147.274 410.226, 146.461 408.500 C 146.202 407.950, 146.234 409.975, 146.533 413 M 363.079 410.161 C 363.036 411.624, 362.118 415.655, 361.040 419.118 C 359.078 425.425, 358.978 427.779, 360.820 424.336 C 362.233 421.694, 364.322 410.419, 363.692 408.838 C 363.398 408.102, 363.122 408.697, 363.079 410.161 M 130.652 409.682 C 127.903 412.430, 132.414 428.674, 141.014 447 C 147.670 461.183, 148.941 465.692, 148.976 475.250 C 149 481.938, 149.710 483.259, 151.876 480.649 C 155.421 476.378, 153.820 464.261, 147.943 450.871 C 146.263 447.043, 144.022 439.365, 142.964 433.810 C 141.105 424.056, 139.763 420.752, 135.934 416.500 C 134.943 415.400, 133.496 413.269, 132.718 411.765 C 131.940 410.261, 131.010 409.323, 130.652 409.682 M 377 410.918 C 377 411.974, 375.210 414.699, 373.023 416.976 C 369.053 421.108, 368.469 422.539, 365.570 435.245 C 364.724 438.955, 361.924 447.280, 359.349 453.745 C 355.351 463.784, 354.656 466.563, 354.584 472.783 C 354.521 478.235, 354.877 480.305, 356 481.017 C 358.611 482.675, 358.999 482.127, 359.024 476.750 C 359.064 468.314, 360.634 463.479, 369.017 445.988 C 377.815 427.630, 380.711 418.548, 379.617 412.750 C 378.884 408.864, 377 407.546, 377 410.918 M 113.643 428.500 C 113.854 430.150, 116.682 437.125, 119.927 444 C 123.171 450.875, 127.036 460.241, 128.516 464.813 C 129.996 469.386, 131.391 472.943, 131.616 472.718 C 132.762 471.571, 126.148 452.932, 120.538 441.500 C 117.029 434.350, 113.956 427.825, 113.709 427 C 113.461 426.175, 113.431 426.850, 113.643 428.500 M 396.136 428.334 C 396.061 429.343, 392.900 436.093, 389.112 443.334 C 385.324 450.575, 381.238 459.650, 380.034 463.500 C 378.829 467.350, 377.627 471.175, 377.362 472 C 377.050 472.976, 377.215 473.150, 377.835 472.500 C 378.360 471.950, 379.973 468.180, 381.419 464.122 C 382.866 460.064, 387.006 451.037, 390.619 444.063 C 395.123 435.370, 397.045 430.614, 396.731 428.941 C 396.433 427.353, 396.225 427.141, 396.136 428.334" stroke="none" fill="black" fill-rule="evenodd"/>
</svg>